<?xml version="1.0" encoding="UTF-8" standalone="no"?>
<svg
   xmlns:dc="http://purl.org/dc/elements/1.1/"
   xmlns:cc="http://creativecommons.org/ns#"
   xmlns:rdf="http://www.w3.org/1999/02/22-rdf-syntax-ns#"
   xmlns:svg="http://www.w3.org/2000/svg"
   xmlns="http://www.w3.org/2000/svg"
   version="1.1"
   id="svg2266"
   width="91.180534"
   height="90.515404"
   viewBox="0 0 91.180534 90.515404">
  <metadata
     id="metadata2272">
    <rdf:RDF>
      <cc:Work
         rdf:about="">
        <dc:format>image/svg+xml</dc:format>
        <dc:type
           rdf:resource="http://purl.org/dc/dcmitype/StillImage" />
        <dc:title></dc:title>
      </cc:Work>
    </rdf:RDF>
  </metadata>
  <defs
     id="defs2270" />
  <g
     id="g2274"
     transform="translate(31.48688,-51.365065)">
    <g
       id="g3658"
       transform="matrix(0.70682585,0,0,0.70682585,-31.48688,51.406757)">
      <path
         style="fill:#dcd734"
         d="M 0,64 V 0 H 64.5 129 v 64 64 H 64.5 0 Z"
         id="path3668" />
      <path
         style="fill:#659ae7"
         d="M 0,64 V 0 H 64.5 129 v 64 64 H 64.5 0 Z m 69.997363,29.502687 4.413779,-4.497314 -3.955571,-4.081848 C 64.156612,78.423478 63.662677,78.347975 58.510013,83.097535 56.029506,85.383987 54,88.062343 54,89.049437 54,91.155099 61.62588,98 63.971791,98 c 0.886486,0 3.597994,-2.023791 6.025572,-4.497313 z M 63.5,73.830262 c 1.1,0.03367 3.125,0.198134 4.5,0.365478 2.024322,0.246368 2.553267,-0.171418 2.779955,-2.19574 0.637654,-5.694267 1.563924,-7.420092 7.280445,-13.564925 3.294983,-3.541861 6.42934,-7.59299 6.965239,-9.002511 C 87.542106,42.813753 85.252408,32.248703 80.338427,27.804985 76.693502,24.508876 69.634772,22.044441 63.774469,22.021962 58.906284,22.003289 56.76074,22.673833 49.446079,26.5 44.714506,28.975 39.978495,31 38.921609,31 c -4.232674,0 -1.415014,3.989092 7.462332,10.564768 l 3.883941,2.876933 2.616059,-3.08013 c 1.438832,-1.694072 3.598975,-3.593454 4.800318,-4.220851 3.421532,-1.786882 8.766662,-1.360466 11.680882,0.93186 4.725437,3.717029 3.141093,8.339549 -5.07573,14.809064 -6.343302,4.994399 -6.959673,6.081669 -7.835323,13.821394 -0.795188,7.02853 -0.142491,8.77172 2.908771,7.768602 C 60.538287,74.085212 62.4,73.796592 63.5,73.830262 Z"
         id="path3666" />
      <path
         style="fill:#4a70a9"
         d="M 0,94.943296 V 61.886592 l 2.2225062,1.556704 C 5.9537963,66.056793 8.1743664,65.234249 16.752062,58.061256 24.894131,51.25255 29.627766,47.956474 35.5,45.006883 c 4.337103,-2.178503 4.313693,-5.100461 -0.07983,-9.963563 -2.035357,-2.252897 -3.399251,-4.397574 -3.030876,-4.76595 0.368376,-0.368375 2.629582,-0.735949 5.024903,-0.81683 2.896562,-0.09781 5.988105,-1.151837 9.231019,-3.147222 8.088589,-4.976959 16.998769,-6.690865 25.482586,-4.90167 4.943482,1.042556 12.317831,7.888407 15.645901,14.524605 2.131939,4.251104 3.764462,6.004596 7.488344,8.043227 C 100.35602,46.768166 112,57.653158 112,59.62641 c 0,1.833545 5.28727,11.77166 6.7498,12.687127 1.78737,1.118802 5.5638,9.370024 4.83109,10.555575 C 122.46882,84.668488 124.86695,89 126.97525,89 128.93903,89 129,89.58721 129,108.5 V 128 H 64.5 0 Z m 69.997363,-1.440609 4.413779,-4.497314 -3.955571,-4.081848 C 64.156612,78.423478 63.662677,78.347975 58.510013,83.097535 56.029506,85.383987 54,88.062343 54,89.049437 54,91.155099 61.62588,98 63.971791,98 c 0.886486,0 3.597994,-2.023791 6.025572,-4.497313 z M 63.5,73.830262 c 1.1,0.03367 3.125,0.198134 4.5,0.365478 2.024322,0.246368 2.553267,-0.171418 2.779955,-2.19574 0.637654,-5.694267 1.563924,-7.420092 7.280445,-13.564925 3.294983,-3.541861 6.42934,-7.59299 6.965239,-9.002511 C 87.542106,42.813753 85.252408,32.248703 80.338427,27.804985 76.693502,24.508876 69.634772,22.044441 63.774469,22.021962 58.906284,22.003289 56.76074,22.673833 49.446079,26.5 44.714506,28.975 39.978495,31 38.921609,31 c -4.232674,0 -1.415014,3.989092 7.462332,10.564768 l 3.883941,2.876933 2.616059,-3.08013 c 1.438832,-1.694072 3.598975,-3.593454 4.800318,-4.220851 3.421532,-1.786882 8.766662,-1.360466 11.680882,0.93186 4.725437,3.717029 3.141093,8.339549 -5.07573,14.809064 -6.343302,4.994399 -6.959673,6.081669 -7.835323,13.821394 -0.795188,7.02853 -0.142491,8.77172 2.908771,7.768602 C 60.538287,74.085212 62.4,73.796592 63.5,73.830262 Z M 113,10.7396 C 103.5177,9.7368889 97.708423,9.6246282 84.5,10.188856 74.757663,10.605022 62.703822,9.4187382 59.5,7.7284711 56.905581,6.3597119 55.071791,3.9332737 55.031803,1.8162357 55.002585,0.26933903 58.007608,0.12468995 92,0.0367434 l 37,-0.09572796 V 5.0018925 c 0,3.1766524 -0.46539,5.2042515 -1.25,5.4459695 -3.38812,1.04379 -6.96843,1.114605 -14.75,0.291738 z"
         id="path3664" />
      <path
         style="fill:#395a8d"
         d="M 11.830358,117.25 C 9.7806321,103.34893 10.038978,97.158371 12.832553,93.235158 14.024649,91.561013 15.015946,88.685726 15.035435,86.84563 15.054925,85.005533 15.713979,82.375 16.5,81 17.286021,79.625 17.945075,77.330999 17.964565,75.90222 17.990293,74.016046 19.712052,71.737167 24.25,67.582969 35.134939,57.618509 38,54.643212 38,53.303923 38,52.586765 38.356811,52 38.792914,52 c 0.436103,0 1.645998,-2.5875 2.688655,-5.75 1.042657,-3.1625 2.009937,-5.911591 2.14951,-6.109091 0.139574,-0.197501 1.703473,0.673187 3.475331,1.934862 l 3.221561,2.293953 2.586014,-3.044141 C 56.223594,37.429658 59.011569,36 63.2994,36 c 4.169274,0 8.714091,3.316148 8.665165,6.32258 -0.05528,3.396674 -2.031634,6.115639 -7.675154,10.559064 -6.589706,5.188405 -7.300745,6.584166 -7.569715,14.859239 -0.216914,6.673529 -0.188039,6.755264 2.280304,6.454857 3.167976,-0.385556 5.832024,-0.385556 9,0 2.024322,0.246368 2.553267,-0.171418 2.779955,-2.19574 0.637654,-5.694267 1.563924,-7.420092 7.280445,-13.564925 6.680547,-7.181089 7.932629,-9.660125 7.954913,-15.750175 0.0201,-5.493942 1.538,-3.261758 3.096129,4.553092 1.143356,5.734542 1.147725,5.739748 7.266301,8.657236 7.655197,3.650186 12.344687,8.541513 17.234567,17.976336 l 3.82054,7.371564 -2.70528,2.157115 c -1.88323,1.501632 -2.97758,3.614657 -3.60138,6.953706 -0.56545,3.026667 -1.67655,5.343234 -3.01115,6.278025 C 103.6742,99.742465 107.19316,106 113.38321,106 c 2.816,0 3.94524,-0.73213 6.73561,-4.36695 3.07792,-4.009395 8.89812,-8.495956 8.86871,-6.83654 -0.0196,1.108096 -7.80097,9.20349 -8.84644,9.20349 -0.51653,0 -1.93072,1.90237 -3.14264,4.22748 -1.21192,2.32512 -3.28236,5.50964 -4.60097,7.07673 -1.31861,1.56708 -2.39748,3.48971 -2.39748,4.27252 0,0.7828 -0.35625,1.42327 -0.79166,1.42327 -0.43542,0 -2.46146,1.575 -4.50232,3.5 l -3.71066,3.5 H 64.56278 C 43.310941,128 27.061373,127.59363 25.5651,127.02475 23.898433,126.39109 23,126.39109 23,127.02475 23,127.56114 20.843477,128 18.207727,128 H 13.415455 Z M 69.997363,93.502687 74.411142,89.005373 70.455571,84.923525 C 64.156612,78.423478 63.662677,78.347975 58.510013,83.097535 56.029506,85.383987 54,88.062343 54,89.049437 54,91.155099 61.62588,98 63.971791,98 c 0.886486,0 3.597994,-2.023791 6.025572,-4.497313 z"
         id="path3662" />
      <path
         style="fill:#364c66"
         d="m 78.20349,115.97205 c -2.209593,-3.92754 -5.132148,-4.59402 -10.97095,-2.50189 -7.793379,2.79248 -10.095071,2.96422 -12.352098,0.92164 -1.413193,-1.27892 -1.912501,-2.72001 -1.623851,-4.68671 0.377937,-2.57505 0.191107,-2.78329 -2.003066,-2.23258 -1.885624,0.47326 -2.53855,0.15356 -2.957384,-1.44807 -0.491618,-1.87995 -1.060742,-2.00372 -6.666822,-1.44993 L 35.5,105.18 32.670632,99.672557 c -2.400056,-4.671771 -2.648277,-5.84581 -1.635895,-7.737465 0.922532,-1.723766 0.924072,-3.129209 0.0068,-6.190845 -1.073005,-3.581371 -0.98198,-4.178723 0.950156,-6.235388 1.548687,-1.648502 2.218317,-3.815454 2.432839,-7.872774 0.293154,-5.544515 0.347683,-5.633468 5.685738,-9.274974 2.96436,-2.022223 6.462932,-4.505746 7.774605,-5.51894 C 49.196531,55.828977 51.029119,55 51.957277,55 c 2.182526,0 13.176056,-5.914951 14.76092,-7.941955 0.670008,-0.856925 1.232508,-2.398029 1.25,-3.424676 0.02408,-1.41343 -0.481756,-1.732333 -2.083425,-1.313487 -1.163375,0.304229 -2.990193,0.01921 -4.059595,-0.633369 -1.671087,-1.019748 -2.322505,-0.752781 -4.634773,1.899445 -1.479722,1.697276 -3.203066,3.947276 -3.829654,5 -1.076477,1.808578 -1.296878,1.823841 -4,0.277 -2.632679,-1.50653 -6.846827,-7.710214 -5.888513,-8.668529 0.226937,-0.226936 1.862315,0.619667 3.634173,1.881342 l 3.221561,2.293953 2.586014,-3.044141 C 56.223594,37.429658 59.011569,36 63.2994,36 c 4.169274,0 8.714091,3.316148 8.665165,6.32258 -0.05528,3.396674 -2.031634,6.115639 -7.675154,10.559064 -6.589706,5.188405 -7.300745,6.584166 -7.569715,14.859239 -0.216914,6.673529 -0.188039,6.755264 2.280304,6.454857 3.167976,-0.385556 5.832024,-0.385556 9,0 2.024322,0.246368 2.553267,-0.171418 2.779955,-2.19574 0.637654,-5.694267 1.563924,-7.420092 7.280445,-13.564925 6.64801,-7.146115 7.902726,-9.610651 8.018547,-15.750175 0.0768,-4.070806 0.107121,-4.107556 1.112316,-1.347952 0.714724,1.96216 0.702336,5.970779 -0.04018,13 -0.979932,9.276831 -0.906252,10.511853 0.844955,14.163052 1.055176,2.2 2.226836,5.953732 2.60369,8.341627 0.427316,2.707646 1.622588,5.210834 3.175938,6.651182 3.517838,3.261923 2.45059,6.682192 -3.025957,9.697452 -5.659155,3.1158 -6.073452,5.932729 -1.325031,9.009289 1.952808,1.26525 3.556131,2.82731 3.562939,3.47124 0.0068,0.64394 -1.787621,2.98888 -3.987621,5.21097 -2.2,2.2221 -4,4.6846 -4,5.47222 0,1.3555 -2.013461,2.64602 -4.128298,2.64602 -0.530597,0 -1.731293,-1.36258 -2.668212,-3.02795 z M 69.997363,93.502687 74.411142,89.005373 70.455571,84.923525 C 64.156612,78.423478 63.662677,78.347975 58.510013,83.097535 56.029506,85.383987 54,88.062343 54,89.049437 54,91.155099 61.62588,98 63.971791,98 c 0.886486,0 3.597994,-2.023791 6.025572,-4.497313 z"
         id="path3660" />
    </g>
  </g>
</svg>
